<?xml version="1.0" encoding="UTF-8"?>
<svg id="Layer_1" xmlns="http://www.w3.org/2000/svg" version="1.1" viewBox="0 0 207.41 170.23">
  <!-- Generator: Adobe Illustrator 29.7.1, SVG Export Plug-In . SVG Version: 2.1.1 Build 8)  -->
  <defs>
    <style>
      .st0 {
        fill: #fff;
      }

      .st1 {
        fill: #e6b7b0;
      }

      .st1, .st2 {
        stroke: #606060;
        stroke-miterlimit: 10;
        stroke-width: .5px;
      }

      .st2 {
        fill: none;
      }

      .st3 {
        fill: #83889f;
      }
    </style>
  </defs>
  <g id="weight">
    <g id="Weight">
      <g>
        <polygon points="166.76 152.74 202.55 115.96 186.24 115.69 78.74 113.88 35.45 150.54 166.76 152.74"/>
        <rect class="st3" x="95.01" y="91.97" width="11.99" height="131.33" transform="translate(-58.3 255.98) rotate(-89.04)"/>
        <polygon class="st3" points="166.76 152.74 166.56 164.73 202.36 127.15 202.55 115.96 166.76 152.74"/>
      </g>
    </g>
  </g>
  <g id="body">
    <path id="body_x5F_fill" class="st3" d="M82.17,24.12c.08-.09.18-.18.28-.28-.1.04,6.36-7.72,6.63-10.92,0-.09,0-.18.02-.26.08-2.13-.59-4.01-1.98-5.61-.09-.11-2.09-2.73-5.41-2.46-3.64.31-7.27,3.94-10.81,10.82l-.03.07c-15.24-11.79-27.53-1.09-30.1,1.46-2.86-6.73-6.08-10.44-9.57-11.03-3.28-.55-5.5,1.89-5.57,1.97-1.51,1.46-2.33,3.26-2.44,5.32-.03.83.06,1.71.28,2.61.63,2.72,2.23,5.18,3.5,6.57,1.4,1.53,3.1,2.97,4.28,3.9,1.31,1.03,2.03,2.62,2.02,4.23,0,.18,0,.34-.03.51-.03.4-.11.81-.23,1.2-.16.46-.26,1.05-.39,1.73-.49,2.61-1.17,6.19-4.96,7.39-13.24,4.16-14.83,16.58-15,18.36-2.16,1.72-3.84,3.26-4,3.4-2.48,2.88-3.88,5.98-4.16,9.23-.04.35-.06.69-.05,1.03,0,.53.02,1.07.07,1.61.96,9.44,10.34,16.74,10.79,17.08,13.99,8.35,33.07,8.23,38.95,7.96.95,3.51,4.43,15.87,7.95,21.61.05.09.11.17.14.25,3.15,5.69-2.71,14.39-4.66,17.01-.37.5-.6.78-.6.78,0,0,5.46,10.64,32.95,3.22,0,0,.12-1.67-.4-3.93-.47-2.02-1.46-4.51-3.53-6.71-.6-.64-1.32-1.16-2.06-1.65-1.31-.87-3.86-3.16-3.21-7.58.29-1.99,1.22-4.39,3.19-7.29l4.73.02s2.72,3.92,6.54,6.42c.71.47,1.45.88,2.23,1.22,0,0,1.45,5.04.2,6.7-.99,1.31-4.62,2.73-6.36,8.45-.47,1.51-.81,3.32-.92,5.5,0,0,14.79,2.54,17.8,2.23,3.02-.31,6.97-.12,13.39-5.33l-1.34-1.64s4.6,1.19,12.77-3.25c0,0-.1-.24-.26-.65-.79-1.97-3.16-7.87-3.43-8.56,0,0,3.61.39,8.54-1,3.57-1.01,7.84-2.94,11.95-6.62,0,0,1.13,1.72,1.24,5.52.11,3.8-4.64,7.94-5.39,9.03-.75,1.1-1.65,7.08,8.31,7.18,9.49.1,14.71-.22,19.49-3.5.42-.29.58-.84.4-1.32-.34-.95-1.02-2.67-2.11-4.99-.23-.48-.47-.99-.74-1.52-2.28-4.51,4.51-16.03,4.51-16.03,0,0,.7-1.63,1.59-3.87,1.33-3.37,3.08-8.13,3.45-10.79,2.45-3.08,3.65-5.87,3.86-6.41,7.11-7.46,9.66-15.27,10.19-21.92.06-.67.09-1.33.11-1.98.16-8.44-2.74-14.51-2.79-14.62-.13-.24-.25-.46-.37-.68.03,0,.05,0,.08-.02,2.66-.49,5.3-1.38,6.8-2.99,4.14-4.45,4.07-9.28,4.07-9.28,0,0-3.22,3.61-5.73,5.01-2.42,1.34-4.86.43-8.6,1.22-.03,0-.06,0-.1.02-.09-.15-.19-.31-.28-.46-10.89-17.56-29.62-28.79-50.23-30.27-16.44-1.18-40.34-1-55.44,7.57h-.02Z"/>
  </g>
  <g id="elementer">
    <g id="orenease">
      <path class="st1" d="M37.98,18.93c.8-.59-5.38-11.05-9.74-6.74-4.43,4.38,5.44,12.91,5.44,12.91,0,0,1.16-3.86,4.3-6.17Z"/>
      <path class="st1" d="M74.97,16.58c-.87-.48,3.88-11.67,8.77-7.96,4.97,3.76-3.7,13.51-3.7,13.51,0,0-1.66-3.68-5.07-5.55Z"/>
      <path class="st1" d="M58.3,80.65c.83,2.72-2.46,6.12-7.34,7.6-4.88,1.48-10.32-2.24-10.32-2.24,0,0,2.46-6.12,7.34-7.6,4.88-1.48,9.5-.48,10.32,2.24Z"/>
      <path class="st1" d="M27,84.35s-6.57.51-10.06-3.21c-3.49-3.71-4.64-8.3-2.57-10.24,2.07-1.94,6.57-.51,10.06,3.21,3.49,3.71,2.57,10.24,2.57,10.24Z"/>
    </g>
  </g>
  <g id="eye">
    <ellipse id="left" class="st0" cx="43.96" cy="39.03" rx="11" ry="6.38" transform="translate(4.08 82.22) rotate(-88.88)"/>
    <ellipse id="right" class="st0" cx="61.18" cy="39.36" rx="11" ry="6.38" transform="translate(20.63 99.76) rotate(-88.88)"/>
  </g>
  <g id="stroke">
    <g id="stroke1">
      <g>
        <path class="st2" d="M82.17,24.12c.08-.09.18-.18.28-.28-.1.04,6.36-7.72,6.63-10.92,0-.09,0-.18.02-.26.08-2.13-.59-4.01-1.98-5.61-.09-.11-2.09-2.73-5.41-2.46-3.64.31-7.27,3.94-10.81,10.82l-.03.07c-15.24-11.79-27.53-1.09-30.1,1.46-2.86-6.73-6.08-10.44-9.57-11.03-3.28-.55-5.5,1.89-5.57,1.97-1.51,1.46-2.33,3.26-2.44,5.32-.03.83.06,1.71.28,2.61.63,2.72,2.23,5.18,3.5,6.57,1.4,1.53,3.1,2.97,4.28,3.9,1.31,1.03,2.03,2.62,2.02,4.23,0,.18,0,.34-.03.51-.03.4-.11.81-.23,1.2-.16.46-.26,1.05-.39,1.73-.49,2.61-1.17,6.19-4.96,7.39-13.24,4.16-14.83,16.58-15,18.36-2.16,1.72-3.84,3.26-4,3.4-2.48,2.88-3.88,5.98-4.16,9.23-.04.35-.06.69-.05,1.03,0,.53.02,1.07.07,1.61.96,9.44,10.34,16.74,10.79,17.08,13.99,8.35,33.07,8.23,38.95,7.96.95,3.51,4.43,15.87,7.95,21.61.05.09.11.17.14.25,3.15,5.69-2.71,14.39-4.66,17.01-.37.5-.6.78-.6.78,0,0,5.46,10.64,32.95,3.22,0,0,.12-1.67-.4-3.93-.47-2.02-1.46-4.51-3.53-6.71-.6-.64-1.32-1.16-2.06-1.65-1.31-.87-3.86-3.16-3.21-7.58.29-1.99,1.22-4.39,3.19-7.29l4.73.02s2.72,3.92,6.54,6.42c.71.47,1.45.88,2.23,1.22,0,0,1.45,5.04.2,6.7-.99,1.31-4.62,2.73-6.36,8.45-.47,1.51-.81,3.32-.92,5.5,0,0,14.79,2.54,17.8,2.23,3.02-.31,6.97-.12,13.39-5.33l-1.34-1.64s4.6,1.19,12.77-3.25c0,0-.1-.24-.26-.65-.79-1.97-3.16-7.87-3.43-8.56,0,0,3.61.39,8.54-1,3.57-1.01,7.84-2.94,11.95-6.62,0,0,1.13,1.72,1.24,5.52.11,3.8-4.64,7.94-5.39,9.03-.75,1.1-1.65,7.08,8.31,7.18,9.49.1,14.71-.22,19.49-3.5.42-.29.58-.84.4-1.32-.34-.95-1.02-2.67-2.11-4.99-.23-.48-.47-.99-.74-1.52-2.28-4.51,4.51-16.03,4.51-16.03,0,0,.7-1.63,1.59-3.87,1.33-3.37,3.08-8.13,3.45-10.79,2.45-3.08,3.65-5.87,3.86-6.41,7.11-7.46,9.66-15.27,10.19-21.92.06-.67.09-1.33.11-1.98.16-8.44-2.74-14.51-2.79-14.62-.13-.24-.25-.46-.37-.68.03,0,.05,0,.08-.02,2.66-.49,5.3-1.38,6.8-2.99,4.14-4.45,4.07-9.28,4.07-9.28,0,0-3.22,3.61-5.73,5.01-2.42,1.34-4.86.43-8.6,1.22-.03,0-.06,0-.1.02-.09-.15-.19-.31-.28-.46-10.89-17.56-29.62-28.79-50.23-30.27-16.44-1.18-40.34-1-55.44,7.57h-.02Z"/>
        <path class="st2" d="M48.06,100.04c-10.78-18.23-30.51-6.84-30.51-6.84"/>
        <path class="st2" d="M69.62,72.53c9.03,15.74-15.48,27.51-15.48,27.51"/>
        <path class="st2" d="M70.27,84.89s30.21-11.51,9.77-45.25"/>
        <path class="st2" d="M30.18,61.32s4.45,8.51,21.86,6.67"/>
        <path class="st2" d="M40.2,25.45s8.29-4.75,11.99,1.62"/>
        <path class="st2" d="M56.33,23.48s8.29-4.75,11.99,1.62"/>
        <path class="st2" d="M12.18,60.17s3.01-2.43,6.91-4.07"/>
        <path class="st2" d="M120.32,139.31s-4.62-12.86-9.4-16.51c-4.78-3.66,7.16-15.78,8.41-20.73"/>
        <path class="st2" d="M149.82,119.23s8.94-6.97,13.69-16.55"/>
        <path class="st2" d="M54.28,100.01s12.04,16.12,34.5,15.74c0,0,10.78-.21,17.25-5.31"/>
        <path class="st2" d="M81.26,24.84s20.82-.09,33.2,27.14"/>
        <path class="st2" d="M129.38,126.85s-7.93-.21-18.47-4.05"/>
      </g>
    </g>
  </g>
  <g id="pupil">
    <ellipse cx="43.83" cy="45.81" rx="3.15" ry="4.21" transform="translate(-1.66 1.64) rotate(-2.11)"/>
    <ellipse cx="61.05" cy="46.15" rx="3.15" ry="4.21" transform="translate(-1.66 2.28) rotate(-2.11)"/>
    <ellipse class="st0" cx="42.7" cy="42.7" rx="1.12" ry=".93" transform="translate(-.83 84.56) rotate(-88.88)"/>
    <ellipse class="st0" cx="60.04" cy="43.03" rx="1.12" ry=".93" transform="translate(15.84 102.22) rotate(-88.88)"/>
  </g>
</svg>