<?xml version="1.0" encoding="UTF-8"?>
<svg xmlns="http://www.w3.org/2000/svg" version="1.1" viewBox="0 0 207.41 170.23">
  <!-- Generator: Adobe Illustrator 29.7.1, SVG Export Plug-In . SVG Version: 2.1.1 Build 8)  -->
  <defs>
    <style>
      .st0 {
        fill: #bae5f4;
      }

      .st1 {
        fill: #f0f1f2;
      }

      .st2 {
        isolation: isolate;
        opacity: .29;
      }

      .st2, .st3 {
        fill: #114b95;
      }

      .st4 {
        fill: #5daf51;
      }

      .st5 {
        fill: #fff;
      }

      .st6 {
        fill: #e6b7b0;
      }

      .st6, .st7 {
        stroke: #606060;
        stroke-miterlimit: 10;
        stroke-width: .5px;
      }

      .st7 {
        fill: none;
      }

      .st8 {
        opacity: .8;
      }

      .st9 {
        fill: #83889f;
      }
    </style>
  </defs>
  <g id="weight">
    <g id="Weight">
      <g>
        <path d="M202.55,115.96l-35.79,36.78-131.31-2.2,27.72-23.47c-.6,4.82-4.07,9.91-5.48,11.81-.37.5-.6.78-.6.78,0,0,5.46,10.64,32.95,3.22,0,0,.12-1.67-.4-3.93-.47-2.02-1.46-4.51-3.53-6.71-.6-.64-1.32-1.16-2.06-1.65-1.31-.87-3.86-3.16-3.21-7.58.29-1.99,1.22-4.39,3.19-7.29l4.73.02s2.72,3.92,6.54,6.42c.71.47,1.45.88,2.23,1.22,0,0,1.45,5.04.2,6.7-.99,1.31-4.62,2.73-6.36,8.45-.47,1.51-.81,3.32-.92,5.5,0,0,14.79,2.54,17.8,2.23,3.02-.31,6.97-.12,13.39-5.33l-1.34-1.64s4.6,1.19,12.77-3.25c0,0-.1-.24-.26-.65-.79-1.97-3.16-7.87-3.43-8.56,0,0,3.61.39,8.54-1,3.57-1.01,7.84-2.94,11.95-6.62,0,0,1.13,1.72,1.24,5.52.11,3.8-4.64,7.94-5.39,9.03-.75,1.1-1.65,7.08,8.31,7.18,9.49.1,14.71-.22,19.49-3.5.42-.29.58-.84.4-1.32-.34-.95-1.02-2.67-2.11-4.99-.23-.48-.47-.99-.74-1.52-1.7-3.37,1.66-10.65,3.46-14.12l11.71.2,16.31.27Z"/>
        <rect class="st9" x="95.01" y="91.97" width="11.99" height="131.33" transform="translate(-58.3 255.98) rotate(-89.04)"/>
        <polygon class="st9" points="166.76 152.74 166.56 164.73 202.36 127.15 202.55 115.96 166.76 152.74"/>
      </g>
    </g>
    <g>
      <path d="M84.8,159.95c-.14-.09-.26-.21-.35-.36-.09-.15-.13-.31-.13-.49v-.22s.82.01.82.01v.2s.01.09.05.13c.03.04.08.06.13.06l3.4.06s.09-.02.13-.05c.04-.04.05-.08.05-.13l.02-1.15s-.02-.09-.05-.13c-.03-.04-.08-.06-.13-.06l-3.42-.06v-.81s3.2.05,3.2.05c.05,0,.1-.02.14-.05.04-.04.05-.08.05-.13l.02-1.06s-.02-.09-.05-.13c-.03-.04-.08-.06-.13-.06l-3.17-.05s-.09.02-.13.05c-.04.04-.05.08-.05.13v.28s-.82-.01-.82-.01v-.3c0-.18.05-.35.14-.49.09-.14.21-.26.36-.35.15-.09.32-.13.5-.13l3.21.05c.18,0,.35.05.49.14.15.09.26.21.34.36.08.15.12.31.12.5l-.02,1.11c0,.06,0,.13-.02.19-.01.06-.03.12-.06.18.11.11.18.23.23.37s.06.27.06.4l-.02,1.2c0,.18-.05.34-.14.48-.09.14-.21.26-.36.35-.15.09-.31.13-.48.13l-3.44-.06c-.18,0-.35-.05-.49-.14Z"/>
      <path d="M90.5,160.18v-.81s.82.01.82.01v.81s-.82-.01-.82-.01Z"/>
      <path d="M92.66,160.09c-.15-.09-.26-.21-.35-.36-.08-.15-.13-.31-.12-.49v-.29s.81.01.81.01v.27s.01.09.05.13c.04.04.08.06.13.06l3.4.06s.09-.02.13-.05c.04-.04.06-.08.06-.13l.02-1.17s-.02-.09-.05-.13c-.04-.04-.08-.06-.13-.06l-4.39-.07.05-3.04,5.39.09v.82s-4.41-.07-4.41-.07c-.05,0-.09.02-.13.05-.04.04-.06.08-.06.13l-.02,1.04s.02.09.05.13c.04.04.08.06.13.06l3.42.06c.17,0,.33.05.48.13s.26.21.35.36c.09.15.13.32.13.5l-.02,1.22c0,.18-.05.34-.14.48-.09.14-.21.26-.36.35-.15.09-.31.13-.48.13l-3.44-.06c-.18,0-.34-.05-.49-.14Z"/>
      <path d="M98.87,160.19c-.15-.09-.26-.22-.35-.37-.08-.15-.13-.32-.12-.49l.06-3.4c0-.18.05-.34.14-.49.09-.15.21-.27.36-.35.15-.09.31-.13.49-.13l3.44.06c.17,0,.33.05.48.14.15.09.26.21.35.36.09.15.13.32.13.5l-.06,3.4c0,.17-.05.34-.14.49-.09.15-.21.27-.36.36-.15.09-.31.13-.48.13l-3.44-.06c-.18,0-.34-.05-.49-.15ZM99.22,158.66l3.54-2.84-3.31-.06s-.09.02-.13.05c-.04.04-.06.08-.06.13l-.05,2.71ZM99.47,159.5l3.31.06s.09-.02.13-.05c.04-.03.06-.08.06-.13l.05-2.71-3.55,2.84Z"/>
      <path d="M105.11,160.29c-.15-.09-.26-.22-.35-.37-.09-.15-.13-.32-.12-.49l.06-3.4c0-.18.05-.34.14-.49.09-.15.21-.27.36-.35.15-.09.31-.13.49-.13l3.44.06c.17,0,.33.05.48.14.15.09.26.21.35.37.09.15.13.32.13.5l-.06,3.4c0,.17-.05.34-.14.49-.09.15-.21.27-.36.36-.15.09-.31.13-.48.13l-3.44-.06c-.18,0-.34-.05-.49-.15ZM105.46,158.77l3.54-2.84-3.31-.06s-.09.02-.13.05c-.04.04-.06.08-.06.13l-.04,2.71ZM105.71,159.6l3.31.06s.09-.02.13-.05c.04-.03.06-.08.06-.13l.05-2.71-3.55,2.84Z"/>
      <path d="M113.01,160.56l.1-5.76h.81s-.05,3.2-.05,3.2l.97.02,1.65-1.74.93.02v.15s-1.87,1.99-1.87,1.99l1.8,2.05v.15s-.93-.02-.93-.02l-1.59-1.79-.97-.02-.03,1.77h-.81Z"/>
      <path d="M118.48,162.37v-.82s2.67.04,2.67.04c.05,0,.09-.02.13-.05.04-.04.06-.08.06-.13v-.71s-2.62-.04-2.62-.04c-.17,0-.34-.05-.48-.14-.15-.09-.27-.21-.35-.36-.08-.15-.13-.31-.12-.49l.04-2.39c0-.18.05-.34.14-.48.09-.14.21-.26.36-.35.15-.09.31-.13.48-.13l2.47.04c.18,0,.34.05.49.14.15.09.26.21.35.36.08.15.13.31.12.49l-.07,4.11c0,.18-.05.34-.14.49-.09.15-.21.26-.36.35-.15.08-.31.13-.49.12l-2.68-.04ZM118.75,159.85l2.42.04s.09-.02.13-.05c.04-.04.06-.08.06-.13l.04-2.35s-.02-.09-.05-.13c-.04-.04-.08-.06-.13-.06l-2.42-.04s-.09.02-.13.05c-.04.04-.06.08-.06.13l-.04,2.35s.02.09.05.13c.04.04.08.06.13.06Z"/>
    </g>
  </g>
  <g id="body">
    <path class="st9" d="M191.7,53.29s-.05.02-.08.02c.12.22.24.44.37.68.05.11,2.95,6.18,2.79,14.62-.02.65-.05,1.31-.11,1.98-.53,6.65-3.08,14.46-10.19,21.92-.21.54-1.41,3.33-3.86,6.41-.37,2.66-2.12,7.42-3.45,10.79-.89,2.24-1.59,3.87-1.59,3.87,0,0-.43.74-1.05,1.91-1.8,3.47-5.16,10.75-3.46,14.12.27.53.51,1.04.74,1.52,1.09,2.32,1.77,4.04,2.11,4.99.18.48.02,1.03-.4,1.32-4.78,3.28-10,3.6-19.49,3.5-9.96-.1-9.06-6.08-8.31-7.18.75-1.09,5.5-5.23,5.39-9.03-.11-3.8-1.24-5.52-1.24-5.52-4.11,3.68-8.38,5.61-11.95,6.62-4.93,1.39-8.54,1-8.54,1,.27.69,2.64,6.59,3.43,8.56.16.41.26.65.26.65-8.17,4.44-12.77,3.25-12.77,3.25l1.34,1.64c-6.42,5.21-10.37,5.02-13.39,5.33-3.01.31-17.8-2.23-17.8-2.23.11-2.18.45-3.99.92-5.5,1.74-5.72,5.37-7.14,6.36-8.45,1.25-1.66-.2-6.7-.2-6.7-.78-.34-1.52-.75-2.23-1.22-3.82-2.5-6.54-6.42-6.54-6.42l-4.73-.02c-1.97,2.9-2.9,5.3-3.19,7.29-.65,4.42,1.9,6.71,3.21,7.58.74.49,1.46,1.01,2.06,1.65,2.07,2.2,3.06,4.69,3.53,6.71.52,2.26.4,3.93.4,3.93-27.49,7.42-32.95-3.22-32.95-3.22,0,0,.23-.28.6-.78,1.41-1.9,4.88-6.99,5.48-11.81.23-1.84.05-3.63-.82-5.2-.03-.08-.09-.16-.14-.25-3.52-5.74-7-18.1-7.95-21.61-5.88.27-24.96.39-38.95-7.96-.45-.34-9.83-7.64-10.79-17.08-.05-.54-.07-1.08-.07-1.61-.01-.34.01-.68.05-1.03.28-3.25,1.68-6.35,4.16-9.23.16-.14,1.84-1.68,4-3.4.17-1.78,1.76-14.2,15-18.36,3.79-1.2,4.47-4.78,4.96-7.39.13-.68.23-1.27.39-1.73.12-.39.2-.8.23-1.2.03-.17.03-.33.03-.51.01-1.61-.71-3.2-2.02-4.23-1.18-.93-2.88-2.37-4.28-3.9-1.27-1.39-2.87-3.85-3.5-6.57-.22-.9-.31-1.78-.28-2.61.11-2.06.93-3.86,2.44-5.32.07-.08,2.29-2.52,5.57-1.97,3.49.59,6.71,4.3,9.57,11.03,2.57-2.55,14.86-13.25,30.1-1.46l.03-.07c3.54-6.88,7.17-10.51,10.81-10.82,3.32-.27,5.32,2.35,5.41,2.46,1.39,1.6,2.06,3.48,1.98,5.61-.02.08-.02.17-.02.26-.27,3.18-6.63,10.84-6.63,10.92-.1.1-.2.19-.28.28h.02c15.1-8.58,39-8.76,55.44-7.58,20.61,1.48,39.34,12.71,50.23,30.27.09.15.19.31.28.46.04-.02.07-.02.1-.02,3.74-.79,6.18.12,8.6-1.22,2.51-1.4,5.73-5.01,5.73-5.01,0,0,.07,4.83-4.07,9.28-1.5,1.61-4.14,2.5-6.8,2.99Z"/>
  </g>
  <g id="elementer">
    <g id="orenease">
      <path class="st6" d="M37.98,18.93c.8-.59-5.38-11.05-9.74-6.74-4.43,4.38,5.44,12.91,5.44,12.91,0,0,1.16-3.86,4.3-6.17Z"/>
      <path class="st6" d="M74.97,16.58c-.87-.48,3.88-11.67,8.77-7.96,4.97,3.76-3.7,13.51-3.7,13.51,0,0-1.66-3.68-5.07-5.55Z"/>
      <path class="st6" d="M58.3,80.65c.83,2.72-2.46,6.12-7.34,7.6-4.88,1.48-10.32-2.24-10.32-2.24,0,0,2.46-6.12,7.34-7.6,4.88-1.48,9.5-.48,10.32,2.24Z"/>
      <path class="st6" d="M27,84.35s-6.57.51-10.06-3.21c-3.49-3.71-4.64-8.3-2.57-10.24,2.07-1.94,6.57-.51,10.06,3.21,3.49,3.71,2.57,10.24,2.57,10.24Z"/>
    </g>
  </g>
  <g id="eye">
    <ellipse id="left" class="st5" cx="43.96" cy="39.03" rx="11" ry="6.38" transform="translate(4.08 82.22) rotate(-88.88)"/>
    <ellipse id="right" class="st5" cx="61.18" cy="39.36" rx="11" ry="6.38" transform="translate(20.63 99.76) rotate(-88.88)"/>
  </g>
  <g id="stroke">
    <g id="stroke1" data-name="stroke">
      <g>
        <path class="st7" d="M82.17,24.12c.08-.09.18-.18.28-.28-.1.04,6.36-7.72,6.63-10.92,0-.09,0-.18.02-.26.08-2.13-.59-4.01-1.98-5.61-.09-.11-2.09-2.73-5.41-2.46-3.64.31-7.27,3.94-10.81,10.82l-.03.07c-15.24-11.79-27.53-1.09-30.1,1.46-2.86-6.73-6.08-10.44-9.57-11.03-3.28-.55-5.5,1.89-5.57,1.97-1.51,1.46-2.33,3.26-2.44,5.32-.03.83.06,1.71.28,2.61.63,2.72,2.23,5.18,3.5,6.57,1.4,1.53,3.1,2.97,4.28,3.9,1.31,1.03,2.03,2.62,2.02,4.23,0,.18,0,.34-.03.51-.03.4-.11.81-.23,1.2-.16.46-.26,1.05-.39,1.73-.49,2.61-1.17,6.19-4.96,7.39-13.24,4.16-14.83,16.58-15,18.36-2.16,1.72-3.84,3.26-4,3.4-2.48,2.88-3.88,5.98-4.16,9.23-.04.35-.06.69-.05,1.03,0,.53.02,1.07.07,1.61.96,9.44,10.34,16.74,10.79,17.08,13.99,8.35,33.07,8.23,38.95,7.96.95,3.51,4.43,15.87,7.95,21.61.05.09.11.17.14.25,3.15,5.69-2.71,14.39-4.66,17.01-.37.5-.6.78-.6.78,0,0,5.46,10.64,32.95,3.22,0,0,.12-1.67-.4-3.93-.47-2.02-1.46-4.51-3.53-6.71-.6-.64-1.32-1.16-2.06-1.65-1.31-.87-3.86-3.16-3.21-7.58.29-1.99,1.22-4.39,3.19-7.29l4.73.02s2.72,3.92,6.54,6.42c.71.47,1.45.88,2.23,1.22,0,0,1.45,5.04.2,6.7-.99,1.31-4.62,2.73-6.36,8.45-.47,1.51-.81,3.32-.92,5.5,0,0,14.79,2.54,17.8,2.23,3.02-.31,6.97-.12,13.39-5.33l-1.34-1.64s4.6,1.19,12.77-3.25c0,0-.1-.24-.26-.65-.79-1.97-3.16-7.87-3.43-8.56,0,0,3.61.39,8.54-1,3.57-1.01,7.84-2.94,11.95-6.62,0,0,1.13,1.72,1.24,5.52.11,3.8-4.64,7.94-5.39,9.03-.75,1.1-1.65,7.08,8.31,7.18,9.49.1,14.71-.22,19.49-3.5.42-.29.58-.84.4-1.32-.34-.95-1.02-2.67-2.11-4.99-.23-.48-.47-.99-.74-1.52-2.28-4.51,4.51-16.03,4.51-16.03,0,0,.7-1.63,1.59-3.87,1.33-3.37,3.08-8.13,3.45-10.79,2.45-3.08,3.65-5.87,3.86-6.41,7.11-7.46,9.66-15.27,10.19-21.92.06-.67.09-1.33.11-1.98.16-8.44-2.74-14.51-2.79-14.62-.13-.24-.25-.46-.37-.68.03,0,.05,0,.08-.02,2.66-.49,5.3-1.38,6.8-2.99,4.14-4.45,4.07-9.28,4.07-9.28,0,0-3.22,3.61-5.73,5.01-2.42,1.34-4.86.43-8.6,1.22-.03,0-.06,0-.1.02-.09-.15-.19-.31-.28-.46-10.89-17.56-29.62-28.79-50.23-30.27-16.44-1.18-40.34-1-55.44,7.57h-.02Z"/>
        <path class="st7" d="M48.06,100.04c-10.78-18.23-30.51-6.84-30.51-6.84"/>
        <path class="st7" d="M69.62,72.53c9.03,15.74-15.48,27.51-15.48,27.51"/>
        <path class="st7" d="M70.27,84.89s30.21-11.51,9.77-45.25"/>
        <path class="st7" d="M30.18,61.32s4.45,8.51,21.86,6.67"/>
        <path class="st7" d="M40.2,25.45s8.29-4.75,11.99,1.62"/>
        <path class="st7" d="M56.33,23.48s8.29-4.75,11.99,1.62"/>
        <path class="st7" d="M12.18,60.17s3.01-2.43,6.91-4.07"/>
        <path class="st7" d="M120.32,139.31s-4.62-12.86-9.4-16.51c-4.78-3.66,7.16-15.78,8.41-20.73"/>
        <path class="st7" d="M149.82,119.23s8.94-6.97,13.69-16.55"/>
        <path class="st7" d="M54.28,100.01s12.04,16.12,34.5,15.74c0,0,10.78-.21,17.25-5.31"/>
        <path class="st7" d="M81.26,24.84s20.82-.09,33.2,27.14"/>
        <path class="st7" d="M129.38,126.85s-7.93-.21-18.47-4.05"/>
      </g>
    </g>
  </g>
  <g id="pupil">
    <path d="M46.97,45.69c.09,2.32-1.25,4.26-2.99,4.32-1.74.07-3.22-1.77-3.3-4.09-.05-1.35.38-2.56,1.1-3.36.36-.42.82-.73,1.32-.87.18-.05.37-.08.57-.09,1.74-.07,3.22,1.77,3.3,4.09Z"/>
    <path d="M64.2,46.04c.08,2.32-1.26,4.25-3,4.32-1.74.06-3.21-1.77-3.3-4.09-.06-1.44.44-2.73,1.24-3.52.37-.37.81-.63,1.29-.74.15-.04.3-.06.46-.07,1.74-.06,3.22,1.77,3.31,4.1Z"/>
    <path class="st5" d="M43.63,42.72c-.02.62-.44,1.11-.96,1.1-.51-.01-.92-.52-.9-1.14,0-.04,0-.08.01-.12.36-.42.82-.73,1.32-.87.32.18.54.58.53,1.03Z"/>
    <path class="st5" d="M60.97,43.05c-.02.62-.44,1.11-.96,1.1-.51-.01-.92-.52-.9-1.14,0-.09.01-.18.03-.26.37-.37.81-.63,1.29-.74.33.19.55.58.54,1.04Z"/>
  </g>
  <g id="buttons">
    <g id="tsunami" class="st8">
      <circle class="st2" cx="136.77" cy="74.14" r="13.05"/>
      <path class="st1" d="M126.93,76.43s.64,5.65,10.33,4.43c9.68-1.22-6.34-7.5-6.34-7.5l-3.02,1.5c-.59.3-.97.9-.97,1.56h0Z"/>
      <path class="st9" d="M138.59,73.37c0,.09.03.21.05.35-.03-.13-.04-.25-.05-.35Z"/>
      <path class="st9" d="M138.75,74.21c-.05-.18-.08-.35-.11-.49.02.15.06.31.11.49Z"/>
      <path class="st0" d="M147.66,77.23v.77c-1.13.38-1.82.62-2.48.86-.81.3-4.59,2.43-8.84,1.93-.54-.06-1.08-.23-1.57-.48-.99-.52-2.82-1.43-2.91-2.63-.12-1.59-.42-2.79-1.25-3.14,0,0-.65-.24-1.02.81-.2.57-.57,1.06-1.08,1.36-.16.09-.32.17-.47.21-.6.16-.2-.62-.67-.66-.08,0-.24.05-.45.17v-.07c0-.64.25-1.24.68-1.71.23-.25.46-.52.69-.8q.15-.19,0,0h0s.02-.03.03-.04v-.02l.05-.05s.05-.06.08-.1c.07-.09.14-.18.2-.28.11-.15.22-.3.32-.45h0c.15-.23.3-.44.46-.65.24-.31.47-.61.71-.89.16-.19.32-.37.48-.54.73-.78,1.48-1.41,2.21-1.86,2.54-1.57,4.82-1.51,4.82-1.51,7.34-.22,9.01,3.6,9.01,3.6.06.15.1.29.13.41,0,.04.02.07.02.11.14.98-1,.62-1,.62-1.16,1.34-2.21-.59-2.21-.59-1.03.71-1.6-.32-1.6-.32-.49.07-.82-.02-1.04-.16-.35-.24-.47-.61-.47-.61-1.15,1.09-2.18-.1-2.18-.1-.46.62-1.32.13-1.32.13-1.25-.8-2.58-.8-2.86-.79h-.14c-2.42-.05-5.12,4.33-5.12,4.33,2.54-2.18,3.48,2.33,3.48,2.33,1.3,6.58,9.75,3.12,9.75,3.12,1.12-.1,3.9-1.52,4.07-1.6h0c.17-.08.35-.16.52-.25,0,0,.34-.17.93-.43l.03-.03Z"/>
      <path d="M146.21,77.91h0c-.36.07-.71.11-1.03.14.33-.03.68-.08,1.04-.14Z"/>
      <path class="st3" d="M139.14,72.51c.06-.07.13-.14.2-.2.07-.07.14-.13.2-.19.07-.07.14-.12.2-.17.07-.06.13-.11.19-.15.03-.02.05-.04.08-.07.09-.07.18-.13.26-.19.42-.29.72-.43.72-.43-.35-.24-.47-.61-.47-.61-1.15,1.09-2.18-.1-2.18-.1-.46.62-1.32.13-1.32.13-1.25-.8-2.58-.8-2.86-.79h-.14c-2.42-.05-5.12,4.33-5.12,4.33,2.54-2.18,3.48,2.33,3.48,2.33,1.3,6.58,9.75,3.12,9.75,3.12,1.12-.1,3.9-1.52,4.07-1.6-.36.07-.71.11-1.03.14-.34.03-.65.04-.96.04-.17,0-.34,0-.49-.02-.14,0-.27-.02-.4-.03-.1-.01-.21-.02-.31-.04-.05-.01-.09-.02-.14-.02-.12-.02-.23-.04-.34-.07h-.04c-.09-.02-.18-.04-.27-.08-.17-.04-.34-.1-.49-.16-.08-.03-.15-.06-.22-.09-.02,0-.05-.02-.07-.03-.09-.04-.18-.09-.27-.14-.12-.06-.23-.13-.33-.19-.07-.04-.14-.09-.21-.14-.08-.05-.16-.12-.24-.18-.31-.26-.57-.54-.79-.83-.1-.14-.19-.27-.27-.41-.04-.07-.09-.14-.12-.21-.23-.43-.38-.86-.47-1.23,0,0-.22-1.15.38-1.71h.02Z"/>
      <path class="st1" d="M146.85,71.56c-.35.37-.71,0-.92-.2-.21-.21-.51-1.03-.92-.92-.41.1-.27.14-.44.31s-.17-.41-.24-.58-.21-.51-.57-.49c-.37.02.03.87-.59,0s-.86-.57-.86-.57c0,0-.27.75-.65.17-.38-.58-.68-.31-.68-.31-.27.48-.21.38-.86,0s-.62-.03-1.03.41-.75-.1-.96-.31-.68-.44-.68-.44c-.99-.55-1.3.21-1.3.21.1.34.21.44,0,.44s-1.33-.21-1.33-.21c-2.08-.61-5.95,4.08-6.45,4.7.22-.28.44-.57.65-.88,1.21-1.76,2.56-3.13,3.87-3.94,2.54-1.57,4.82-1.51,4.82-1.51,7.34-.22,9.01,3.6,9.01,3.6.08.2.13.37.15.52h-.02Z"/>
    </g>
    <g id="vaegt" class="st8">
      <circle class="st2" cx="89.03" cy="130.39" r="13.05"/>
      <path class="st3" d="M98.32,128.44h0c.51,0,.93.42.93.93v3.86c0,.51-.42.93-.93.93h0c-.52,0-.94-.42-.94-.94v-3.84c0-.52.42-.94.94-.94Z" transform="translate(-.39 .29) rotate(-.17)"/>
      <path class="st3" d="M95.92,126.88h0c.52,0,.94.42.94.94v7.01c0,.52-.42.94-.94.94h0c-.51,0-.93-.42-.93-.93v-7.02c0-.52.42-.94.94-.94Z" transform="translate(-.39 .29) rotate(-.17)"/>
      <rect class="st3" x="79.39" y="128.5" width="1.87" height="5.72" rx=".94" ry=".94" transform="translate(-.39 .24) rotate(-.17)"/>
      <rect class="st3" x="81.79" y="126.9" width="1.87" height="8.88" rx=".94" ry=".94" transform="translate(-.39 .25) rotate(-.17)"/>
      <rect class="st3" x="84.1" y="130.39" width="10.51" height="1.87" transform="translate(-.39 .27) rotate(-.17)"/>
    </g>
    <g id="sund" class="st8">
      <circle class="st2" cx="15.29" cy="99.31" r="13.05"/>
      <path class="st4" d="M20.36,95.28c-2.7.39-3.66,2.53-3.95,3.51,1.06-4.02-.81-5.03-.81-5.03-1.89,1.77-1.59,3.94-1.29,4.99-.42-1.01-1.55-2.87-4.13-3.06,0,0-.89,2.12,2.94,4.71l.22.16c.45-.17.98-.31,1.77-.36.98-.06,1.78.12,2.29.27.12-.1.24-.19.36-.28,3.64-2.86,2.6-4.91,2.6-4.91ZM16.33,99.07c.02-.08.04-.17.07-.27-.02.09-.05.18-.07.27ZM14.31,98.76c.1.25.16.44.19.54-.04-.1-.12-.29-.19-.54Z"/>
      <path class="st3" d="M23.4,99.69c-.49,3.72-3.89,6.89-8.02,6.89s-7.68-3.17-8.19-6.89h16.21Z"/>
    </g>
  </g>
</svg>