<?xml version="1.0" encoding="UTF-8"?>
<svg id="Layer_1" xmlns="http://www.w3.org/2000/svg" version="1.1" viewBox="0 0 176.6 151.58">
  <!-- Generator: Adobe Illustrator 29.7.1, SVG Export Plug-In . SVG Version: 2.1.1 Build 8)  -->
  <defs>
    <style>
      .st0 {
        fill: #8188a1;
      }
    </style>
  </defs>
  <path class="st0" d="M87.97,18.46c12.4-11.24,22.4-20.64,40.69-14.1,23.5,8.4,12.84,35.72,16.77,38.7,22.49-5.26,36.16,10.63,29.48,32.11-3.17,10.18-12.33,12.01-17.68,20.18-6.29,9.59-6.35,24.98-15.17,34.23-30.15,31.6-87.66,29.26-111.52-7.82-6.51-10.11-6.64-24.55-11.65-32.58-7.41-11.87-25.02-20.74-16.68-38.67,7.54-16.22,28.41-9.48,29.54-11.73C24.99-2.25,64.34-13.47,87.97,18.46Z"/>
</svg>