<?xml version="1.0" encoding="UTF-8"?>
<svg id="Layer_1" xmlns="http://www.w3.org/2000/svg" version="1.1" viewBox="0 0 20 20">
  <!-- Generator: Adobe Illustrator 29.7.1, SVG Export Plug-In . SVG Version: 2.1.1 Build 8)  -->
  <defs>
    <style>
      .st0 {
        fill: #8188a1;
      }
    </style>
  </defs>
  <path class="st0" d="M9.96,3.95c1.31-1.19,2.37-2.18,4.3-1.49,2.48.89,1.36,3.77,1.77,4.09,2.37-.56,3.82,1.12,3.11,3.39-.33,1.08-1.3,1.27-1.87,2.13-.66,1.01-.67,2.64-1.6,3.62-3.18,3.34-9.26,3.09-11.78-.83-.69-1.07-.7-2.59-1.23-3.44C1.89,10.16.03,9.23.91,7.33c.8-1.71,3-1,3.12-1.24C3.31,1.76,7.47.57,9.96,3.95Z"/>
</svg>